<svg xmlns="http://www.w3.org/2000/svg" width="174" height="40.945"><defs><style>.cls-1{fill:#662483}</style></defs><g id="balbix_logo"><g id="Group_7" data-name="Group 7"><g id="Group_5" data-name="Group 5" transform="translate(50.658 5.499)"><path id="Path_3" data-name="Path 3" d="M313.093 88.071v-27.3h12.693a7.279 7.279 0 0 1 5.211 2 6.48 6.48 0 0 1 2.114 4.975 5.583 5.583 0 0 1-3.486 5.483A6.479 6.479 0 0 1 335.11 80a7.689 7.689 0 0 1-2.389 5.8 8.094 8.094 0 0 1-5.916 2.272zm7.443-16.413h3.6a2.287 2.287 0 0 0 2.311-2.469 2.31 2.31 0 0 0-2.311-2.39h-3.6zm0 10.3h4.624a2.647 2.647 0 0 0 2.782-2.662 2.593 2.593 0 0 0-2.821-2.547h-4.585z" transform="translate(-313.093 -59.513)"/><path id="Path_4" data-name="Path 4" d="M453.644 105.841a9.1 9.1 0 0 1 6.974-2.977c2.859 0 4.662.784 5.444 2.311V103.1h7.092v19.743h-7.092v-2.076c-.782 1.528-2.585 2.311-5.444 2.311a9.2 9.2 0 0 1-6.974-2.938 10.579 10.579 0 0 1 0-14.3zm8.5 10.889a3.775 3.775 0 1 0-4.113-3.759 3.972 3.972 0 0 0 4.114 3.759z" transform="translate(-426.891 -94.284)"/><path id="Path_5" data-name="Path 5" d="M599.672 88.071v-27.3h7.248v27.3z" transform="translate(-549.807 -59.513)"/><path id="Path_6" data-name="Path 6" d="M662.027 88.071v-27.3h7.091V70.4c.745-1.526 2.586-2.312 5.445-2.312a9.086 9.086 0 0 1 6.972 2.978 10.572 10.572 0 0 1 0 14.3 9.187 9.187 0 0 1-6.972 2.939c-2.859 0-4.7-.784-5.445-2.311v2.076h-7.091zm11.009-6.112a3.775 3.775 0 1 0-4.113-3.759 3.975 3.975 0 0 0 4.112 3.759z" transform="translate(-601.312 -59.513)"/><path id="Path_7" data-name="Path 7" d="M804.8 60.333a3.926 3.926 0 0 1 0-5.6 3.974 3.974 0 0 1 5.643 0 3.926 3.926 0 0 1 0 5.6 4.047 4.047 0 0 1-5.643 0zm-.782 21.78V62.369h7.248v19.744z" transform="translate(-718.272 -53.555)"/><path id="Path_8" data-name="Path 8" d="M856.082 123.957l7.4-10.341-6.62-9.4h7.875l2.9 4.114 2.9-4.114h7.876l-6.623 9.4 7.407 10.341h-7.915l-3.644-5.014-3.638 5.014h-7.914z" transform="translate(-761.602 -95.398)"/></g><g id="Group_6" data-name="Group 6"><path id="Rectangle_14" data-name="Rectangle 14" class="cls-1" transform="translate(9.097 9.099)" d="M0 0h22.747v9.099H0z"/><path id="Rectangle_15" data-name="Rectangle 15" class="cls-1" transform="translate(9.097 22.748)" d="M0 0h22.747v9.098H0z"/><path id="Path_9" data-name="Path 9" class="cls-1" d="M58.348 166.336H26.5v-13.648h-4.546v18.2H62.9v-18.2h-4.55z" transform="translate(-21.954 -129.94)"/><path id="Path_10" data-name="Path 10" class="cls-1" d="M21.954 21.954v18.2H26.5V26.5h31.848v13.652H62.9v-18.2z" transform="translate(-21.954 -21.954)"/></g></g><g id="Group_9" data-name="Group 9" transform="translate(167.317 6.663)"><g id="Group_8" data-name="Group 8"><path id="Path_11" data-name="Path 11" d="M984.509 65.794a3.157 3.157 0 0 1-.963-2.311 3.085 3.085 0 0 1 .963-2.292 3.445 3.445 0 0 1 4.738 0 3.167 3.167 0 0 1-.019 4.6 3.42 3.42 0 0 1-4.719 0zm2.369-4.641a2.288 2.288 0 0 0-2.369 2.33 2.36 2.36 0 0 0 4.719 0 2.272 2.272 0 0 0-2.35-2.331zm-1.178 3.89v-3.216h1.31a1.054 1.054 0 0 1 1.1 1.059 1 1 0 0 1-.5.924l.751 1.233h-.944l-.616-1.059h-.289v1.059h-.812zm.809-1.7h.443c.25 0 .385-.135.385-.424a.37.37 0 0 0-.366-.385h-.462z" transform="translate(-983.546 -60.247)"/></g></g></g></svg>